<?xml version="1.0" encoding="UTF-8" standalone="no"?>
<!-- Created with Inkscape (http://www.inkscape.org/) -->

<svg
   xmlns:dc="http://purl.org/dc/elements/1.1/"
   xmlns:cc="http://creativecommons.org/ns#"
   xmlns:rdf="http://www.w3.org/1999/02/22-rdf-syntax-ns#"
   xmlns:svg="http://www.w3.org/2000/svg"
   xmlns="http://www.w3.org/2000/svg"
   xmlns:sodipodi="http://sodipodi.sourceforge.net/DTD/sodipodi-0.dtd"
   xmlns:inkscape="http://www.inkscape.org/namespaces/inkscape"
   width="235.5mm"
   height="66.5mm"
   viewBox="0 0 235.5 66.5"
   version="1.1"
   id="svg8"
   inkscape:version="0.92.3 (2405546, 2018-03-11)"
   sodipodi:docname="MatLunix.svg"
   inkscape:export-filename="C:\Users\nitin\Downloads\bitmap.png"
   inkscape:export-xdpi="108.85714"
   inkscape:export-ydpi="108.85714">
  <defs
     id="defs2" />
  <sodipodi:namedview
     id="base"
     pagecolor="#ffffff"
     bordercolor="#666666"
     borderopacity="1.0"
     inkscape:pageopacity="0.0"
     inkscape:pageshadow="2"
     inkscape:zoom="0.98994949"
     inkscape:cx="573.92026"
     inkscape:cy="75.961247"
     inkscape:document-units="mm"
     inkscape:current-layer="layer1"
     showgrid="false"
     inkscape:window-width="1920"
     inkscape:window-height="1017"
     inkscape:window-x="-8"
     inkscape:window-y="-8"
     inkscape:window-maximized="1" />
  <metadata
     id="metadata5">
    <rdf:RDF>
      <cc:Work
         rdf:about="">
        <dc:format>image/svg+xml</dc:format>
        <dc:type
           rdf:resource="http://purl.org/dc/dcmitype/StillImage" />
        <dc:title></dc:title>
      </cc:Work>
    </rdf:RDF>
  </metadata>
  <g
     inkscape:label="Layer 1"
     inkscape:groupmode="layer"
     id="layer1"
     transform="translate(0,-230.5)">
    <path
       style="fill:#0e2b62;fill-opacity:0.99534882;stroke:#000000;stroke-width:0.22049415;stroke-miterlimit:4;stroke-dasharray:none;stroke-opacity:1"
       d="m 6.8893138,239.41463 -0.02635,8.39484 h 0.02635 v 43.76735 h 8.3302402 v -43.741 l 9.080583,0.0289 v 0.0264 h 0.02687 v 43.76736 h 8.329723 v -43.741 l 9.107456,0.0289 v 43.79371 H 50.09391 V 239.5779 l -17.43718,-0.0553 v -0.0264 l -17.437177,-0.0553 v -0.0263 z"
       id="rect815"
       inkscape:connector-curvature="0" />
    <path
       style="fill:#0e2b62;fill-opacity:0.99534882;stroke:#000000;stroke-width:0.0923882;stroke-miterlimit:4;stroke-dasharray:none;stroke-opacity:1"
       d="m 61.079994,248.1065 v 0.006 h -8.340061 v 27.32444 16.30339 h 8.348329 v -16.27704 l 9.070247,0.0289 v 16.32975 h 8.348327 v -16.3034 l 0.02687,-8.39483 h -0.02687 v -18.9296 h -8.348327 v 18.90324 l -9.070247,-0.0289 v -10.52752 l 9.026837,0.0822 0.0093,-8.43412 z"
       id="rect815-8-9"
       inkscape:connector-curvature="0" />
    <path
       style="fill:#0e2b62;fill-opacity:0.99534882;stroke:#000000;stroke-width:0.08818256;stroke-miterlimit:4;stroke-dasharray:none;stroke-opacity:1"
       d="m 219.21711,242.48565 v 18.66243 l -6.08593,-0.061 v -14.18622 h -8.39329 v 15.24093 h 7.32359 l -0.006,6.33708 h -7.32618 v 22.60948 h 8.38398 v -21.54029 l 6.09576,0.0615 v 14.19294 h 8.39328 v -15.24093 h -7.33392 l 0.006,-6.34484 h 7.33598 v -19.73109 z"
       id="rect815-8-2"
       inkscape:connector-curvature="0" />
    <path
       style="fill:#0e2b62;fill-opacity:0.99534882;stroke:#000000;stroke-width:0.15557502;stroke-miterlimit:4;stroke-dasharray:none;stroke-opacity:1"
       d="m 80.623501,248.19383 -0.0264,8.39432 8.493022,0.0269 v 34.73948 h 8.330242 V 256.6414 l 8.943645,0.0284 0.0269,-8.39484 -8.970515,-0.0284 v -0.0527 h -8.330242 v 0.0269 z"
       id="rect815-8-7"
       inkscape:connector-curvature="0" />
    <rect
       style="fill:#0e2b62;fill-opacity:0.99534882;stroke:#000000;stroke-width:0.0884419;stroke-miterlimit:4;stroke-dasharray:none;stroke-opacity:1"
       id="rect815-65-9"
       width="8.3298616"
       height="8.3922195"
       x="193.76218"
       y="246.89925" />
    <path
       style="fill:#0e2b62;fill-opacity:0.99534882;stroke:#000000;stroke-width:0.22049415;stroke-miterlimit:4;stroke-dasharray:none;stroke-opacity:1"
       d="m 108.53291,239.19231 v 52.16219 h 1.65107 l 21.99194,0.076 0.0243,-8.40104 -15.33757,-0.0532 v -43.78389 z"
       id="rect815-65-29"
       inkscape:connector-curvature="0" />
    <path
       style="fill:#0e2b62;fill-opacity:0.99534882;stroke:#000000;stroke-width:0.15557502;stroke-miterlimit:4;stroke-dasharray:none;stroke-opacity:1"
       d="m 134.81968,247.79592 v 43.62783 5.2e-4 h 0.1633 l 17.25528,0.0548 v 0.0264 h 8.34833 5.3e-4 l 0.0263,-8.39483 h -0.0269 v -35.233 h -8.34833 v 35.20663 l -9.07025,-0.0284 v -35.25986 z"
       id="rect815-8-9-9"
       inkscape:connector-curvature="0" />
    <path
       style="fill:#0e2b62;fill-opacity:0.99534882;stroke:#000000;stroke-width:0.15557502;stroke-miterlimit:4;stroke-dasharray:none;stroke-opacity:1"
       d="m 164.29075,247.87757 -0.0263,8.39484 h 0.0263 v 35.23299 h 8.34884 v -35.20664 l 9.07025,0.0284 v 35.25986 h 8.34833 V 247.9592 l -17.41858,-0.0553 v -0.0263 z"
       id="rect815-8-9-9-2"
       inkscape:connector-curvature="0" />
    <rect
       style="fill:#0e2b62;fill-opacity:0.99534882;stroke:#000000;stroke-width:0.18051179;stroke-miterlimit:4;stroke-dasharray:none;stroke-opacity:1"
       id="rect815-65-0-4-35"
       width="8.3484783"
       height="34.882061"
       x="193.74356"
       y="256.34979" />
    <rect
       style="fill:#ffffff;fill-opacity:0;stroke:#000000;stroke-width:0.2198875;stroke-miterlimit:4;stroke-dasharray:none;stroke-opacity:1"
       id="rect1138"
       width="232.83678"
       height="63.647976"
       x="1.5251641"
       y="232.02106" />
  </g>
</svg>
